<svg version="1.1" xmlns="http://www.w3.org/2000/svg" xmlns:xlink="http://www.w3.org/1999/xlink" width="16" height="16" viewBox="0 0 16 16">
<defs>
<style>.c1{fill:url(#linear-gradient);}</style>
<linearGradient id="linear-gradient" x1="50" y1="101.02" x2="50" y2="4.05" gradientTransform="matrix(1, 0, 0, -1, 0, 102)" gradientUnits="userSpaceOnUse">
<stop offset="0" stop-color="#70b0df"/>
<stop offset="0.5" stop-color="#1b81c5"/>
<stop offset="1" stop-color="#4a98ce"/>
</linearGradient>
</defs>
 <path class="c1" d="M2.1 3.1c0.2 1.3 0.4 1.6 0.4 2.9 0 0.8-1.5 1.5-1.5 1.5v1c0 0 1.5 0.7 1.5 1.5 0 1.3-0.2 1.6-0.4 2.9-0.3 2.1 0.8 3.1 1.8 3.1s2.1 0 2.1 0v-2c0 0-1.8 0.2-1.8-1 0-0.9 0.2-0.9 0.4-2.9 0.1-0.9-0.5-1.6-1.1-2.1 0.6-0.5 1.2-1.1 1.1-2-0.3-2-0.4-2-0.4-2.9 0-1.2 1.8-1.1 1.8-1.1v-2c0 0-1 0-2.1 0s-2.1 1-1.8 3.1z"></path>
 <path class="c1" d="M13.9 3.1c-0.2 1.3-0.4 1.6-0.4 2.9 0 0.8 1.5 1.5 1.5 1.5v1c0 0-1.5 0.7-1.5 1.5 0 1.3 0.2 1.6 0.4 2.9 0.3 2.1-0.8 3.1-1.8 3.1s-2.1 0-2.1 0v-2c0 0 1.8 0.2 1.8-1 0-0.9-0.2-0.9-0.4-2.9-0.1-0.9 0.5-1.6 1.1-2.1-0.6-0.5-1.2-1.1-1.1-2 0.2-2 0.4-2 0.4-2.9 0-1.2-1.8-1.1-1.8-1.1v-2c0 0 1 0 2.1 0s2.1 1 1.8 3.1z"></path>
</svg>
